<svg width="925" height="200" viewBox="0 0 925 200" fill="none" xmlns="http://www.w3.org/2000/svg">
<path d="M268.113 53.9H312.801C318.121 53.9 322.909 54.831 327.165 56.693C331.51 58.555 335.189 61.082 338.204 64.274C341.307 67.3773 343.657 71.057 345.253 75.313C346.938 79.4803 347.78 83.9137 347.78 88.613C347.78 94.997 346.273 100.849 343.258 106.169C340.243 111.489 336.076 115.656 330.756 118.671L349.376 147H316.791L300.964 123.193H295.777V147H268.113V53.9ZM307.215 101.78C310.939 101.78 313.909 100.494 316.126 97.923C318.431 95.3517 319.584 92.2483 319.584 88.613C319.584 84.9777 318.476 81.8743 316.259 79.303C314.042 76.7317 311.072 75.446 307.348 75.446H295.777V101.78H307.215ZM392.148 95.263C388.779 95.263 385.986 96.2827 383.769 98.322C381.641 100.273 380.577 103.11 380.577 106.834H403.453C403.453 103.199 402.433 100.361 400.394 98.322C398.355 96.2827 395.606 95.263 392.148 95.263ZM380.577 119.469C380.666 121.065 380.887 122.617 381.242 124.124C381.685 125.543 382.35 126.828 383.237 127.981C384.124 129.045 385.321 129.932 386.828 130.641C388.424 131.35 390.375 131.705 392.68 131.705C395.606 131.705 397.956 131.084 399.729 129.843C401.502 128.602 402.655 127.006 403.187 125.055H428.457C427.925 128.424 426.728 131.572 424.866 134.498C423.004 137.424 420.566 139.951 417.551 142.079C414.536 144.207 410.945 145.847 406.778 147C402.611 148.241 397.956 148.862 392.813 148.862C386.784 148.862 381.419 148.064 376.72 146.468C372.021 144.783 367.986 142.434 364.617 139.419C361.336 136.316 358.809 132.636 357.036 128.38C355.351 124.124 354.509 119.336 354.509 114.016C354.509 109.228 355.307 104.706 356.903 100.45C358.499 96.194 360.849 92.5143 363.952 89.411C367.144 86.219 371.09 83.692 375.789 81.83C380.488 79.968 385.986 79.037 392.281 79.037C398.31 79.037 403.63 79.9237 408.241 81.697C412.852 83.3817 416.709 85.6427 419.812 88.48C423.004 91.3173 425.398 94.598 426.994 98.322C428.679 101.957 429.521 105.726 429.521 109.627C429.521 111.134 429.477 112.686 429.388 114.282C429.299 115.789 429.078 117.518 428.723 119.469H380.577ZM467.565 90.608C468.186 89.278 469.117 87.948 470.358 86.618C471.688 85.1993 473.24 83.958 475.013 82.894C476.787 81.83 478.737 80.9877 480.865 80.367C483.082 79.6577 485.343 79.303 487.648 79.303C492.17 79.303 496.293 80.1453 500.017 81.83C503.83 83.426 507.066 85.7757 509.726 88.879C512.475 91.8937 514.603 95.529 516.11 99.785C517.618 104.041 518.371 108.74 518.371 113.883C518.371 119.114 517.618 123.858 516.11 128.114C514.603 132.37 512.475 136.005 509.726 139.02C507.066 142.035 503.83 144.384 500.017 146.069C496.293 147.754 492.17 148.596 487.648 148.596C485.343 148.596 483.082 148.241 480.865 147.532C478.737 146.911 476.787 146.069 475.013 145.005C473.24 143.852 471.688 142.611 470.358 141.281C469.117 139.862 468.186 138.488 467.565 137.158V173.999H441.497V80.899H467.565V90.608ZM479.934 100.849C476.21 100.849 473.196 102.135 470.89 104.706C468.674 107.277 467.565 110.336 467.565 113.883C467.565 117.43 468.674 120.489 470.89 123.06C473.196 125.631 476.21 126.917 479.934 126.917C483.658 126.917 486.629 125.631 488.845 123.06C491.151 120.489 492.303 117.43 492.303 113.883C492.303 110.336 491.151 107.277 488.845 104.706C486.629 102.135 483.658 100.849 479.934 100.849ZM564.518 148.862C558.4 148.862 552.947 147.931 548.159 146.069C543.371 144.207 539.337 141.724 536.056 138.621C532.775 135.429 530.293 131.749 528.608 127.582C526.923 123.326 526.081 118.804 526.081 114.016C526.081 109.228 526.923 104.706 528.608 100.45C530.293 96.194 532.775 92.47 536.056 89.278C539.337 86.086 543.371 83.6033 548.159 81.83C552.947 79.968 558.4 79.037 564.518 79.037C570.636 79.037 576.089 79.968 580.877 81.83C585.665 83.6033 589.699 86.086 592.98 89.278C596.261 92.47 598.743 96.194 600.428 100.45C602.201 104.706 603.088 109.228 603.088 114.016C603.088 118.804 602.201 123.326 600.428 127.582C598.743 131.749 596.261 135.429 592.98 138.621C589.699 141.724 585.665 144.207 580.877 146.069C576.089 147.931 570.636 148.862 564.518 148.862ZM564.518 127.05C568.331 127.05 571.345 125.809 573.562 123.326C575.779 120.755 576.887 117.651 576.887 114.016C576.887 110.292 575.779 107.189 573.562 104.706C571.345 102.223 568.331 100.982 564.518 100.982C560.794 100.982 557.779 102.223 555.474 104.706C553.257 107.189 552.149 110.292 552.149 114.016C552.149 117.651 553.257 120.755 555.474 123.326C557.779 125.809 560.794 127.05 564.518 127.05ZM666.909 104.307C665.136 103.864 663.629 103.553 662.387 103.376C661.235 103.199 659.772 103.11 657.998 103.11C655.516 103.11 653.166 103.465 650.949 104.174C648.821 104.795 646.959 105.903 645.363 107.499C643.767 109.006 642.526 111.09 641.639 113.75C640.753 116.41 640.309 119.735 640.309 123.725V147H614.241V80.899H640.309V91.406C641.019 89.8987 641.994 88.4357 643.235 87.017C644.565 85.5983 646.073 84.357 647.757 83.293C649.442 82.1403 651.304 81.2537 653.343 80.633C655.471 79.9237 657.732 79.569 660.126 79.569C661.634 79.569 662.875 79.6577 663.85 79.835C664.826 79.9237 665.845 80.1453 666.909 80.5V104.307ZM720.513 147C718.739 147.355 716.567 147.665 713.996 147.931C711.513 148.197 708.277 148.33 704.287 148.33C701.272 148.33 698.213 148.108 695.11 147.665C692.095 147.31 689.346 146.379 686.863 144.872C684.47 143.276 682.519 140.926 681.012 137.823C679.504 134.72 678.751 130.419 678.751 124.922V99.12H669.042V80.899H678.751V61.614H704.952V80.899H719.848V99.12H704.952V119.07C704.952 121.198 705.173 122.927 705.617 124.257C706.06 125.498 706.681 126.474 707.479 127.183C708.277 127.892 709.163 128.38 710.139 128.646C711.203 128.912 712.311 129.045 713.464 129.045C714.882 129.045 716.124 129.001 717.188 128.912C718.34 128.823 719.449 128.69 720.513 128.513V147ZM762.054 95.263C758.685 95.263 755.892 96.2827 753.675 98.322C751.547 100.273 750.483 103.11 750.483 106.834H773.359C773.359 103.199 772.34 100.361 770.3 98.322C768.261 96.2827 765.512 95.263 762.054 95.263ZM750.483 119.469C750.572 121.065 750.794 122.617 751.148 124.124C751.592 125.543 752.257 126.828 753.143 127.981C754.03 129.045 755.227 129.932 756.734 130.641C758.33 131.35 760.281 131.705 762.586 131.705C765.512 131.705 767.862 131.084 769.635 129.843C771.409 128.602 772.561 127.006 773.093 125.055H798.363C797.831 128.424 796.634 131.572 794.772 134.498C792.91 137.424 790.472 139.951 787.457 142.079C784.443 144.207 780.852 145.847 776.684 147C772.517 148.241 767.862 148.862 762.719 148.862C756.69 148.862 751.326 148.064 746.626 146.468C741.927 144.783 737.893 142.434 734.523 139.419C731.243 136.316 728.716 132.636 726.942 128.38C725.258 124.124 724.415 119.336 724.415 114.016C724.415 109.228 725.213 104.706 726.809 100.45C728.405 96.194 730.755 92.5143 733.858 89.411C737.05 86.219 740.996 83.692 745.695 81.83C750.395 79.968 755.892 79.037 762.187 79.037C768.217 79.037 773.537 79.9237 778.147 81.697C782.758 83.3817 786.615 85.6427 789.718 88.48C792.91 91.3173 795.304 94.598 796.9 98.322C798.585 101.957 799.427 105.726 799.427 109.627C799.427 111.134 799.383 112.686 799.294 114.282C799.206 115.789 798.984 117.518 798.629 119.469H750.483ZM864.071 104.307C862.298 103.864 860.791 103.553 859.549 103.376C858.397 103.199 856.934 103.11 855.16 103.11C852.678 103.11 850.328 103.465 848.111 104.174C845.983 104.795 844.121 105.903 842.525 107.499C840.929 109.006 839.688 111.09 838.801 113.75C837.915 116.41 837.471 119.735 837.471 123.725V147H811.403V80.899H837.471V91.406C838.181 89.8987 839.156 88.4357 840.397 87.017C841.727 85.5983 843.235 84.357 844.919 83.293C846.604 82.1403 848.466 81.2537 850.505 80.633C852.633 79.9237 854.894 79.569 857.288 79.569C858.796 79.569 860.037 79.6577 861.012 79.835C861.988 79.9237 863.007 80.1453 864.071 80.5V104.307Z" fill="black"/>
<path fill-rule="evenodd" clip-rule="evenodd" d="M200 0H0V200H200V0ZM104.543 54H60V147H87.5745V123.219H92.7447L108.52 147H141L122.44 118.701C127.743 115.69 131.897 111.527 134.902 106.213C137.907 100.899 139.409 95.0529 139.409 88.6757C139.409 83.9814 138.57 79.5529 136.89 75.39C135.3 71.1386 132.957 67.4629 129.864 64.3629C126.859 61.1743 123.191 58.65 118.861 56.79C114.619 54.93 109.846 54 104.543 54ZM107.858 97.9757C105.648 100.544 102.687 101.829 98.9754 101.829H87.5745V75.5229H99.108C102.82 75.5229 105.781 76.8071 107.99 79.3757C110.2 81.9443 111.304 85.0443 111.304 88.6757C111.304 92.3071 110.155 95.4071 107.858 97.9757Z" fill="#10069F"/>
</svg>
