<svg version="1.1" id="Layer_1" xmlns="http://www.w3.org/2000/svg" xmlns:xlink="http://www.w3.org/1999/xlink" x="0px" y="0px"
	 width="100%" viewBox="0 0 625 625" enable-background="new 0 0 625 625" xml:space="preserve">
<path fill="#10059F" opacity="1.000000" stroke="none" 
	d="
M277.000000,626.000000 
	C184.666687,626.000000 92.833366,626.000000 1.000037,626.000000 
	C1.000025,417.666718 1.000025,209.333435 1.000012,1.000121 
	C209.333252,1.000081 417.666504,1.000081 625.999817,1.000040 
	C625.999878,209.333206 625.999878,417.666412 625.999939,625.999817 
	C509.833344,626.000000 393.666656,626.000000 277.000000,626.000000 
M392.102600,189.374756 
	C373.491211,176.530884 352.894592,169.922180 330.266754,169.891312 
	C284.268829,169.828568 238.270798,169.837418 192.272797,169.831970 
	C191.151123,169.831833 190.029419,170.010010 188.871811,170.108063 
	C188.871811,266.890869 188.871811,363.435822 188.871811,459.941895 
	C217.632690,459.941895 246.018036,459.941895 274.891479,459.941895 
	C274.891479,435.150696 274.891479,410.750671 274.891479,386.040588 
	C278.519714,386.040588 281.699799,386.356750 284.790497,385.966034 
	C289.366882,385.387573 291.832092,387.365570 294.277069,391.116852 
	C308.634735,413.145844 323.331543,434.953552 337.774231,456.927734 
	C339.441254,459.464050 341.186981,460.410736 344.198547,460.400848 
	C375.196777,460.298859 406.195435,460.346222 437.194000,460.328003 
	C438.393982,460.327301 439.593872,460.084534 441.310791,459.898560 
	C421.925995,430.327850 402.899689,401.304016 383.860321,372.260223 
	C451.845062,333.803101 453.517120,232.784500 392.102600,189.374756 
z"/>
<path fill="#FEFEFF" opacity="1.000000" stroke="none" 
	d="
M392.385040,189.598846 
	C453.517120,232.784500 451.845062,333.803101 383.860321,372.260223 
	C402.899689,401.304016 421.925995,430.327850 441.310791,459.898560 
	C439.593872,460.084534 438.393982,460.327301 437.194000,460.328003 
	C406.195435,460.346222 375.196777,460.298859 344.198547,460.400848 
	C341.186981,460.410736 339.441254,459.464050 337.774231,456.927734 
	C323.331543,434.953552 308.634735,413.145844 294.277069,391.116852 
	C291.832092,387.365570 289.366882,385.387573 284.790497,385.966034 
	C281.699799,386.356750 278.519714,386.040588 274.891479,386.040588 
	C274.891479,410.750671 274.891479,435.150696 274.891479,459.941895 
	C246.018036,459.941895 217.632690,459.941895 188.871811,459.941895 
	C188.871811,363.435822 188.871811,266.890869 188.871811,170.108063 
	C190.029419,170.010010 191.151123,169.831833 192.272797,169.831970 
	C238.270798,169.837418 284.268829,169.828568 330.266754,169.891312 
	C352.894592,169.922180 373.491211,176.530884 392.385040,189.598846 
M274.752899,313.449402 
	C274.752899,315.220245 274.752899,316.991089 274.752899,318.916412 
	C288.749725,318.916412 302.223785,319.343903 315.654541,318.766205 
	C324.614502,318.380768 332.186829,314.022034 338.086334,307.116119 
	C348.407806,295.033905 351.145294,281.126190 347.184235,266.005524 
	C343.467560,251.817688 335.137146,240.573059 320.196533,238.406693 
	C305.367462,236.256485 290.113281,237.038315 274.757935,236.524689 
	C274.757935,262.534027 274.757935,287.498077 274.752899,313.449402 
z"/>
<path fill="#11069F" opacity="1.000000" stroke="none" 
	d="
M274.755432,312.955780 
	C274.757935,287.498077 274.757935,262.534027 274.757935,236.524689 
	C290.113281,237.038315 305.367462,236.256485 320.196533,238.406693 
	C335.137146,240.573059 343.467560,251.817688 347.184235,266.005524 
	C351.145294,281.126190 348.407806,295.033905 338.086334,307.116119 
	C332.186829,314.022034 324.614502,318.380768 315.654541,318.766205 
	C302.223785,319.343903 288.749725,318.916412 274.752899,318.916412 
	C274.752899,316.991089 274.752899,315.220245 274.755432,312.955780 
z"/>
</svg>