<?xml version="1.0" standalone="no"?>
<!DOCTYPE svg PUBLIC "-//W3C//DTD SVG 20010904//EN"
 "http://www.w3.org/TR/2001/REC-SVG-20010904/DTD/svg10.dtd">
<svg version="1.0" xmlns="http://www.w3.org/2000/svg"
 width="625.000000pt" height="625.000000pt" viewBox="0 0 625.000000 625.000000"
 preserveAspectRatio="xMidYMid meet">

<g transform="translate(0.000000,625.000000) scale(0.100000,-0.100000)"
fill="#000000" stroke="none">
<path d="M0 3125 l0 -3125 3125 0 3125 0 0 3125 0 3125 -3125 0 -3125 0 0
-3125z m3562 1403 c183 -50 335 -136 466 -262 92 -89 153 -169 202 -266 132
-264 162 -555 85 -828 -32 -110 -109 -268 -173 -352 -64 -85 -184 -198 -255
-241 -31 -19 -55 -39 -53 -45 3 -7 128 -200 279 -430 150 -231 277 -425 281
-432 6 -9 -97 -12 -501 -11 l-508 1 -244 369 -244 369 -78 0 -79 0 0 -370 0
-370 -435 0 -435 0 0 1450 0 1451 798 -3 797 -3 97 -27z"/>
<path d="M2740 3480 l0 -411 228 3 c225 3 228 3 287 31 291 136 296 607 7 749
l-66 33 -228 3 -228 4 0 -412z"/>
</g>
</svg>
